{"title":"Case.39.2009.720p.BRRip.x264.Feel-Free","uid":6354276,"size":2797690959,"categoryP":"video","categoryS":"hd___movies","magnet":"?xt=urn:btih:9b7e817bb7e73e57cfe0f1bcdbe3a17be07bdc07&amp;dn=Case.39.2009.720p.BRRip.x264.Feel-Free&amp;tr=udp%3A%2F%2Ftracker.openbittorrent.com%3A80&amp;tr=udp%3A%2F%2Fopen.demonii.com%3A1337&amp;tr=udp%3A%2F%2Ftracker.coppersurfer.tk%3A6969&amp;tr=udp%3A%2F%2Fexodus.desync.com%3A6969","seeders":2,"leechers":1,"uploader":"qwersd","files":10,"time":1304097834,"description":"Genre:Horror | Mystery | Thriller \nLanguage:English\nIMDb:http://www.imdb.com/title/tt0795351/\nSource:BluRay.x264-BestHD\nSubtitles:Romana\n\n\nFormat : MPEG-4\nFormat profile : Base Media\nCodec ID : isom\nFile size : 2.60 GiB\nDuration : 1h 49mn\nOverall bit rate : 3 403 Kbps\n\n\nVideo\nFormat profile : &lt;a class=&quot;__cf_email__&quot; href=&quot;/cdn-cgi/l/email-protection&quot; data-cfemail=&quot;531b3a343b131f677d62&quot;&gt;[email&amp;#160;protected]&lt;/a&gt;&lt;script cf-hash='f9e31' type=&quot;text/javascript&quot;&gt;\n/* &lt;![CDATA[ */!function(){try{var t=&quot;currentScript&quot;in document?document.currentScript:function(){for(var t=document.getElementsByTagName(&quot;script&quot;),e=t.length;e--;)if(t[e].getAttribute(&quot;cf-hash&quot;))return t[e]}();if(t&amp;&amp;t.previousSibling){var e,r,n,i,c=t.previousSibling,a=c.getAttribute(&quot;data-cfemail&quot;);if(a){for(e=&quot;&quot;,r=parseInt(a.substr(0,2),16),n=2;a.length-n;n+=2)i=parseInt(a.substr(n,2),16)^r,e+=String.fromCharCode(i);e=document.createTextNode(e),c.parentNode.replaceChild(e,c)}}}catch(u){}}();/* ]]&gt; */&lt;/script&gt;\nFormat settings, CABAC : Yes\nFormat settings, ReFrames : 3 frames\nCodec ID : avc1\nCodec ID/Info : Advanced Video Coding\nDuration : 1h 49mn\nBit rate mode : Variable\nBit rate : 3 000 Kbps\nMaximum bit rate : 12.9 Mbps\nWidth : 1 280 pixels\nHeight : 544 pixels\nDisplay aspect ratio : 2.35:1\nFrame rate mode : Constant\nFrame rate : 23.976 fps\nColor space : YUV\nChroma subsampling : 4:2:0\nBit depth : 8 bits\nScan type : Progressive\nBits/(Pixel*Frame) : 0.180\nStream size : 2.26 GiB (87%)\nWriting library : x264 \n\n\nAudio\nID : 2\nFormat : AAC\nFormat/Info : Advanced Audio Codec\nFormat version : Version 4\nFormat profile : LC\nFormat settings, SBR : No\nCodec ID : 40\nDuration : 1h 49mn\nBit rate mode : Variable\nBit rate : 444 Kbps\nMaximum bit rate : 532 Kbps\nChannel(s) : 6 channels\nChannel positions : Front: L C R, Side: L R, LFE\nSampling rate : 48.0 KHz\nStream size : 348 MiB (13%)\n\n\nPlot:\nA social worker (Zellweger) fights to save a girl from her abusive parents, only to discover that the situation is more dangerous than she ever expected. \n\nScreens:\n &lt;a href=&quot;\nhttp://shareimage.org/images/zm8s2l2slcjw1l4442id.png&quot; rel=&quot;nofollow&quot; target=&quot;_NEW&quot;&gt;\nhttp://shareimage.org/images/zm8s2l2slcjw1l4442id.png&lt;/a&gt; &lt;a href=&quot;\nhttp://shareimage.org/images/8y35pvw3d1dp3zjmenm.png&quot; rel=&quot;nofollow&quot; target=&quot;_NEW&quot;&gt;\nhttp://shareimage.org/images/8y35pvw3d1dp3zjmenm.png&lt;/a&gt; &lt;a href=&quot;\nhttp://shareimage.org/images/j6sl716y3lrotlssaoy1.png&quot; rel=&quot;nofollow&quot; target=&quot;_NEW&quot;&gt;\nhttp://shareimage.org/images/j6sl716y3lrotlssaoy1.png&lt;/a&gt; &lt;a href=&quot;\nhttp://shareimage.org/images/ix6bov2dneiu5zuvgs57.png&quot; rel=&quot;nofollow&quot; target=&quot;_NEW&quot;&gt;\nhttp://shareimage.org/images/ix6bov2dneiu5zuvgs57.png&lt;/a&gt; &lt;a href=&quot;\nhttp://shareimage.org/images/sxafc7xb253qpuoxgx.png&quot; rel=&quot;nofollow&quot; target=&quot;_NEW&quot;&gt;\nhttp://shareimage.org/images/sxafc7xb253qpuoxgx.png&lt;/a&gt;\n\nGreets:\n\nINK,CRYS,IMAGINE,LKRG,FXG,3Li,FLAWL3SS,TA,iLLUSiON,ViSiON,DTRG SAFCuk009,LU,TheFalcon007,MYSTiC,PrisM,Noir,WBZ,LAP,Rx,Kingdom,SAFCuk009+Fabreezy,HDLiTE,TWiZTED,ExtraTorrentRG.ELEKTRI4KA,MAGNAT,CM8\nAnd to all the other p2p grps past and present.","torrent":{"xt":"urn:btih:9b7e817bb7e73e57cfe0f1bcdbe3a17be07bdc07","amp;dn":"Case.39.2009.720p.BRRip.x264.Feel-Free","amp;tr":["udp%3A%2F%2Ftracker.openbittorrent.com%3A80","udp%3A%2F%2Fopen.demonii.com%3A1337","udp%3A%2F%2Ftracker.coppersurfer.tk%3A6969","udp%3A%2F%2Fexodus.desync.com%3A6969"],"infoHash":"9b7e817bb7e73e57cfe0f1bcdbe3a17be07bdc07","infoHashBuffer":{"type":"Buffer","data":[155,126,129,123,183,231,62,87,207,224,241,188,219,227,161,123,224,123,220,7]},"announce":[],"urlList":[]}}